# xmcd
#
# Track frame offsets:
#	150
#	16807
#	31838
#	51684
#	66072
#	84821
#	100904
#	112647
#	131055
#	144687
#	158049
#	170975
#	186687
#
# Disc length: 2650 seconds
#
# Revision: 2
# Processed by: cddbd v1.4PL0 Copyright (c) Steve Scherf et al.
#
# Submitted via: MusicManager v6.1.1.0
#
DISCID=b10a580d
DTITLE=Johnny Winter/Calvin 'Loudmouth' Johnson - Blues to the Bone
DYEAR=1900
DGENRE=blues 
TTITLE0=Late On Blues
TTITLE1=They Call Me Loudmouth
TTITLE2=Lien On Your Body
TTITLE3=Once I Had A Woman
TTITLE4=Take My Choice
TTITLE5=Unwelcome In Your Town
TTITLE6=Gangster Of Love
TTITLE7=Alone In My Bedroom
TTITLE8=Hootchie Cootchie Man
TTITLE9=Moth Balls
TTITLE10=She's Mine
TTITLE11=Unsatisfied Mind
TTITLE12=Rock Me Baby
EXTD=
EXTT0=
EXTT1=
EXTT2=
EXTT3=
EXTT4=
EXTT5=
EXTT6=
EXTT7=
EXTT8=
EXTT9=
EXTT10=
EXTT11=
EXTT12=
PLAYORDER=
